<?xml version="1.0" standalone="no"?>
<!DOCTYPE svg PUBLIC "-//W3C//DTD SVG 20010904//EN"
 "http://www.w3.org/TR/2001/REC-SVG-20010904/DTD/svg10.dtd">
<svg version="1.0" xmlns="http://www.w3.org/2000/svg"
 width="400.000000pt" height="400.000000pt" viewBox="0 0 400.000000 400.000000"
 preserveAspectRatio="xMidYMid meet">
<metadata>
Created by potrace 1.14, written by Peter Selinger 2001-2017
</metadata>
<g transform="translate(0.000000,400.000000) scale(0.100000,-0.100000)"
fill="#000000" stroke="none">
<path d="M2230 3704 c-118 -12 -147 -16 -238 -34 -29 -5 -56 -9 -60 -9 -4 1
-9 1 -12 -1 -3 -1 -14 -3 -25 -5 -34 -7 -238 -56 -275 -66 -19 -5 -42 -11 -51
-13 -49 -12 -227 -68 -241 -76 -10 -6 -23 -10 -29 -10 -6 0 -25 -6 -42 -14
-18 -7 -61 -26 -97 -41 -96 -41 -181 -89 -243 -140 -54 -44 -192 -200 -219
-246 -7 -13 -15 -26 -18 -29 -27 -25 -141 -287 -205 -470 -58 -166 -55 -287
12 -415 30 -60 118 -181 151 -211 21 -18 25 -32 27 -97 6 -126 28 -227 68
-312 67 -139 80 -175 101 -285 28 -150 84 -224 221 -290 158 -78 294 -102 364
-65 37 19 39 18 105 -54 45 -48 198 -171 214 -171 5 0 16 -7 23 -17 34 -40
136 -64 123 -28 -4 10 4 9 30 -5 35 -18 112 -51 131 -56 82 -24 171 -65 217
-101 79 -60 197 -119 293 -144 116 -31 281 -30 395 1 244 67 454 261 581 536
39 84 92 248 103 318 4 21 8 41 10 45 2 3 6 30 10 59 3 28 8 67 11 85 16 98
25 447 13 447 -4 0 -3 11 2 24 5 13 7 26 5 28 -3 2 -7 45 -9 95 -3 50 -8 117
-12 149 -4 33 -8 70 -9 84 -3 31 -14 97 -20 130 -3 14 -7 39 -10 55 -36 218
-107 417 -202 568 -23 37 -24 42 -12 85 16 58 15 123 -3 159 -8 16 -13 38 -11
49 13 69 10 87 -21 127 -30 40 -127 112 -204 152 -20 11 -55 31 -77 46 -104
69 -268 129 -435 160 -89 16 -291 18 -430 3z m450 -3324 l55 -9 -70 4 c-38 2
-81 8 -95 14 -27 11 -10 10 110 -9z m90 -4 c0 -2 -7 -7 -16 -10 -8 -3 -12 -2
-9 4 6 10 25 14 25 6z"/>
</g>
</svg>
